<svg id="Livello_2" xmlns="http://www.w3.org/2000/svg" viewBox="0 0 870.04 203.4"><defs><style>.cls-1{fill:#2563eb;}</style></defs><path class="cls-1" d="M63.31,65.8c13.54-.15,25.03,11.24,24.84,24.84,0,4.94-1.32,9.44-3.96,13.44-2.59,3.96-6.06,6.99-10.36,9l14.32,18.43h-27.28l-12.37-16.04H25.62v16.04H0V65.8H63.31Zm-37.69,19.21v11.2h31.24c1.56,0,2.88-.54,3.96-1.61,1.12-1.12,1.66-2.44,1.66-3.96,0-3.13-2.49-5.62-5.62-5.62H25.62Z"/><path class="cls-1" d="M125.35,65.85h30.46l35.25,65.71h-28.84l-5.18-11.24h-32.9l-5.18,11.24h-28.84l35.25-65.71Zm6.21,38.43h18.04l-9-19.41-9.04,19.41Z"/><path class="cls-1" d="M250.9,65.75h25.67v35.3c.1,24.84-20.24,31.97-44.88,32.02-24.64-.05-44.98-7.19-44.88-32.02v-35.3h25.62v33.68c-.1,10.8,8.75,12.66,19.26,12.81,10.46-.15,19.36-2,19.21-12.81v-33.68Z"/><path class="cls-1" d="M313.73,65.75v44.88h51.28v20.83h-76.9V65.75h25.62Z"/><path class="cls-1" d="M505.47,104.23c-1.61,22.2-21.07,28.84-44.73,28.84-24.64-.05-44.98-7.19-44.88-32.07v-4.79c-.1-24.84,20.24-31.97,44.88-32.07,23.66,.05,43.12,6.7,44.73,28.84h-26.25c-2.4-6.45-9.68-7.97-18.48-7.97-10.46,.15-19.36,2-19.21,12.81v1.61c-.15,10.71,8.75,12.66,19.21,12.81,8.8,0,16.13-1.56,18.48-8.02h26.25Z"/><path class="cls-1" d="M536.81,65.85h30.46l35.25,65.71h-28.84l-5.18-11.24h-32.9l-5.18,11.24h-28.84l35.25-65.71Zm6.21,38.43h18.04l-9-19.41-9.04,19.41Z"/><path class="cls-1" d="M667.79,65.8c13.54-.15,25.03,11.24,24.84,24.84,0,4.94-1.32,9.44-3.96,13.44-2.59,3.96-6.06,6.99-10.36,9l14.32,18.43h-27.28l-12.37-16.04h-22.88v16.04h-25.62V65.8h63.31Zm-37.69,19.21v11.2h31.24c1.56,0,2.88-.54,3.96-1.61,1.12-1.12,1.66-2.44,1.66-3.96,0-3.13-2.49-5.62-5.62-5.62h-31.24Z"/><path class="cls-1" d="M726.16,65.75v65.71h-25.62V65.75h25.62Z"/><path class="cls-1" d="M803.85,65.75h25.67v65.71h-28.84l-35.3-40.14v40.14h-25.62V65.75h35.25l28.84,34.81v-34.81Z"/><path class="cls-1" d="M870.04,65.75v65.71h-25.62V65.75h25.62Z"/></svg>